<svg xmlns="http://www.w3.org/2000/svg" fill="none" viewBox="0 0 20 20"><defs/><g clip-path="url(#clip0)"><path fill="#F5F5F5" d="M19.655 16.552H.345A.345.345 0 010 16.207V3.793c0-.19.154-.345.345-.345h19.31c.19 0 .345.155.345.345v12.414c0 .19-.155.345-.345.345z"/><path fill="#FF4B55" d="M20 4.456H0v-.663c0-.19.154-.345.345-.345h19.31c.19 0 .345.155.345.345v.663zM20 7.48H0v1.008h20V7.48zM20 5.464H0v1.008h20V5.464zM20 10.504H.345A.345.345 0 010 10.159v-.663h20v1.008zM20 13.528H0v1.008h20v-1.008zM19.655 16.552H.345A.345.345 0 010 16.207v-.663h20v.663c0 .19-.155.345-.345.345zM20 11.512H0v1.008h20v-1.008z"/><path fill="#41479B" d="M8.965 3.448H.345A.345.345 0 000 3.793v6.366c0 .19.154.345.345.345h8.62c.19 0 .345-.154.345-.345V3.793a.345.345 0 00-.345-.345z"/><path fill="#F5F5F5" d="M.968 4.24l.076.229.242.002c.03 0 .044.04.019.058l-.194.144.072.23a.033.033 0 01-.05.036l-.196-.14-.196.14a.033.033 0 01-.05-.036l.073-.23-.194-.144a.033.033 0 01.019-.058l.241-.002.076-.23c.01-.029.052-.029.062 0zM.968 5.437l.076.23h.242c.03.001.044.041.019.06l-.194.143.072.23a.033.033 0 01-.05.036l-.196-.14-.196.14a.033.033 0 01-.05-.036l.073-.23-.194-.143a.033.033 0 01.019-.059l.241-.002.076-.229c.01-.03.052-.03.062 0zM.968 6.635l.076.229.242.001c.03 0 .044.04.019.06l-.194.142.072.23a.033.033 0 01-.05.037l-.196-.14-.196.14a.033.033 0 01-.05-.037l.073-.23-.194-.143a.033.033 0 01.019-.059l.241-.001.076-.23c.01-.029.052-.029.062 0zM.968 7.832l.076.229.242.002c.03 0 .044.04.019.058l-.194.144.072.23a.033.033 0 01-.05.036l-.196-.14-.196.14a.033.033 0 01-.05-.036l.073-.23L.57 8.12a.033.033 0 01.019-.058L.83 8.06l.076-.229c.01-.03.052-.03.062 0zM.968 9.03l.076.228.242.002c.03 0 .044.04.019.059l-.194.143.072.23a.033.033 0 01-.05.037l-.196-.14-.196.14a.033.033 0 01-.05-.037l.073-.23L.57 9.32a.033.033 0 01.019-.059l.241-.002.076-.228c.01-.03.052-.03.062 0zM1.897 4.827l.077.229.241.002c.031 0 .044.04.02.058l-.195.144.073.23a.033.033 0 01-.05.036l-.196-.14-.197.14a.033.033 0 01-.05-.036l.073-.23-.194-.144a.033.033 0 01.02-.058l.24-.002.077-.23c.01-.029.052-.029.061 0zM1.897 6.024l.077.23.241.001c.031 0 .044.04.02.059l-.195.143.073.23a.033.033 0 01-.05.036l-.196-.14-.197.14a.033.033 0 01-.05-.036l.073-.23-.194-.143a.033.033 0 01.02-.059l.24-.002.077-.229c.01-.03.052-.03.061 0zM1.897 7.222l.077.229.241.001c.031 0 .044.04.02.06l-.195.142.073.23a.033.033 0 01-.05.037l-.196-.14-.197.14a.033.033 0 01-.05-.036l.073-.23L1.5 7.51a.033.033 0 01.02-.059l.24-.001.077-.23c.01-.029.052-.029.061 0zM1.897 8.42l.077.228.241.002c.031 0 .044.04.02.059l-.195.143.073.23a.033.033 0 01-.05.036l-.196-.14-.197.14a.033.033 0 01-.05-.036l.073-.23-.194-.143a.033.033 0 01.02-.06l.24-.001.077-.229c.01-.03.052-.03.061 0zM2.827 4.24l.076.229.242.002c.03 0 .044.04.019.058l-.195.144.073.23a.033.033 0 01-.05.036l-.196-.14-.196.14a.033.033 0 01-.05-.036l.073-.23-.194-.144a.033.033 0 01.019-.058l.24-.002.077-.23c.01-.029.052-.029.062 0zM2.827 5.437l.076.23h.242c.03.001.044.041.019.06l-.195.143.073.23a.033.033 0 01-.05.036l-.196-.14-.196.14a.033.033 0 01-.05-.036l.073-.23-.194-.143a.033.033 0 01.019-.06h.24l.077-.23c.01-.03.052-.03.062 0zM2.827 6.635l.076.229.242.001c.03 0 .044.04.019.06l-.195.142.073.23a.033.033 0 01-.05.037l-.196-.14-.196.14a.033.033 0 01-.05-.037l.073-.23-.194-.143a.033.033 0 01.019-.059l.24-.001.077-.23c.01-.029.052-.029.062 0zM2.827 7.832l.076.229.242.002c.03 0 .044.04.019.058l-.195.144.073.23a.033.033 0 01-.05.036l-.196-.14-.196.14a.033.033 0 01-.05-.036l.073-.23-.194-.144a.033.033 0 01.019-.058l.24-.002.077-.229c.01-.03.052-.03.062 0zM2.827 9.03l.076.228.242.002c.03 0 .044.04.019.059l-.195.143.073.23a.033.033 0 01-.05.037l-.196-.14-.196.14a.033.033 0 01-.05-.037l.073-.23-.194-.143a.033.033 0 01.019-.059l.24-.002.077-.229c.01-.03.052-.03.062 0zM3.756 4.827l.077.229.241.002c.031 0 .044.04.019.058l-.194.144.073.23a.033.033 0 01-.05.036l-.196-.14-.197.14a.033.033 0 01-.05-.036l.073-.23-.194-.144a.033.033 0 01.02-.058l.24-.002.077-.23c.01-.029.051-.029.061 0zM3.756 6.024l.077.23.241.001c.031 0 .044.04.019.059l-.194.143.073.23a.033.033 0 01-.05.036l-.196-.14-.197.14a.033.033 0 01-.05-.036l.073-.23-.194-.143a.033.033 0 01.02-.059l.24-.002.077-.229c.01-.03.051-.03.061 0zM3.756 7.222l.077.229.241.001c.031 0 .044.04.019.06l-.194.142.073.23a.033.033 0 01-.05.037l-.196-.14-.197.14a.033.033 0 01-.05-.036l.073-.23-.194-.144a.033.033 0 01.02-.059l.24-.001.077-.23c.01-.029.051-.029.061 0zM3.756 8.42l.077.228.241.002c.031 0 .044.04.019.059l-.194.143.073.23a.033.033 0 01-.05.036l-.196-.14-.197.14a.033.033 0 01-.05-.036l.073-.23-.194-.143a.033.033 0 01.02-.06l.24-.001.077-.229c.01-.03.051-.03.061 0zM4.686 4.24l.076.229.241.002c.032 0 .045.04.02.058l-.195.144.073.23a.033.033 0 01-.05.036l-.196-.14-.196.14a.033.033 0 01-.05-.036l.073-.23-.195-.144a.033.033 0 01.02-.058l.24-.002.077-.23c.01-.029.052-.029.062 0zM4.686 5.437l.076.23h.241c.032.001.045.041.02.06l-.195.143.073.23a.033.033 0 01-.05.036l-.196-.14-.196.14a.033.033 0 01-.05-.036l.073-.23-.195-.143a.033.033 0 01.02-.06h.24l.077-.23c.01-.03.052-.03.062 0zM4.686 6.635l.076.229.241.001c.032 0 .045.04.02.06l-.195.142.073.23a.033.033 0 01-.05.037l-.196-.14-.196.14a.033.033 0 01-.05-.037l.073-.23-.195-.143a.033.033 0 01.02-.059l.24-.001.077-.23c.01-.029.052-.029.062 0zM4.686 7.832l.076.229.241.002c.032 0 .045.04.02.058l-.195.144.073.23a.033.033 0 01-.05.036l-.196-.14-.196.14a.033.033 0 01-.05-.036l.073-.23-.195-.144a.033.033 0 01.02-.058l.24-.002.077-.229c.01-.03.052-.03.062 0zM4.686 9.03l.076.228.241.002c.032 0 .045.04.02.059l-.195.143.073.23a.033.033 0 01-.05.037l-.196-.14-.196.14a.033.033 0 01-.05-.037l.073-.23-.195-.143a.033.033 0 01.02-.059l.24-.002.077-.229c.01-.03.052-.03.062 0zM5.615 4.827l.076.229.242.002c.031 0 .044.04.019.058l-.194.144.073.23a.033.033 0 01-.05.036l-.197-.14-.196.14a.033.033 0 01-.05-.036l.073-.23-.194-.144a.033.033 0 01.019-.058l.241-.002.077-.23c.01-.029.051-.029.061 0zM5.615 6.024l.076.23.242.001c.031 0 .044.04.019.059l-.194.143.073.23a.033.033 0 01-.05.036l-.197-.14-.196.14a.033.033 0 01-.05-.036l.073-.23-.194-.143a.033.033 0 01.019-.059l.241-.002.077-.229c.01-.03.051-.03.061 0zM5.615 7.222l.076.229.242.001c.031 0 .044.04.019.06l-.194.142.073.23a.033.033 0 01-.05.037l-.197-.14-.196.14a.033.033 0 01-.05-.036l.073-.23-.194-.144a.033.033 0 01.019-.059l.241-.001.077-.23c.01-.029.051-.029.061 0zM5.615 8.42l.076.228.242.002c.031 0 .044.04.019.059l-.194.143.073.23a.033.033 0 01-.05.036l-.197-.14-.196.14a.033.033 0 01-.05-.036l.073-.23-.194-.143a.033.033 0 01.019-.06l.241-.001.077-.229c.01-.03.051-.03.061 0zM6.545 4.24l.076.229.241.002c.031 0 .044.04.02.058l-.195.144.073.23a.033.033 0 01-.05.036l-.196-.14-.196.14a.033.033 0 01-.05-.036l.072-.23-.194-.144a.033.033 0 01.02-.058l.24-.002.077-.23c.01-.029.052-.029.062 0zM6.545 5.437l.076.23h.241c.031.001.044.041.02.06l-.195.143.073.23a.033.033 0 01-.05.036l-.196-.14-.196.14a.033.033 0 01-.05-.036l.072-.23-.194-.143a.033.033 0 01.02-.06h.24l.077-.23c.01-.03.052-.03.062 0zM6.545 6.635l.076.229.241.001c.031 0 .044.04.02.06l-.195.142.073.23a.033.033 0 01-.05.037l-.196-.14-.196.14a.033.033 0 01-.05-.037l.072-.23-.194-.143a.033.033 0 01.02-.059l.24-.001.077-.23c.01-.029.052-.029.062 0zM6.545 7.832l.076.229.241.002c.031 0 .044.04.02.058l-.195.144.073.23a.033.033 0 01-.05.036l-.196-.14-.196.14a.033.033 0 01-.05-.036l.072-.23-.194-.144a.033.033 0 01.02-.058l.24-.002.077-.229c.01-.03.052-.03.062 0zM6.545 9.03l.076.228.241.002c.031 0 .044.04.02.059l-.195.143.073.23a.033.033 0 01-.05.037l-.196-.14-.196.14a.033.033 0 01-.05-.037l.072-.23-.194-.143a.033.033 0 01.02-.059l.24-.002.077-.229c.01-.03.052-.03.062 0zM7.474 4.827l.076.229.242.002c.03 0 .044.04.019.058l-.194.144.072.23a.033.033 0 01-.05.036l-.196-.14-.196.14a.033.033 0 01-.05-.036l.073-.23-.194-.144a.033.033 0 01.019-.058l.241-.002.076-.23c.01-.029.052-.029.062 0zM7.474 6.024l.076.23.242.001c.03 0 .044.04.019.059l-.194.143.072.23a.033.033 0 01-.05.036l-.196-.14-.196.14a.033.033 0 01-.05-.036l.073-.23-.194-.143a.033.033 0 01.019-.059l.241-.002.076-.229c.01-.03.052-.03.062 0zM7.474 7.222l.076.229.242.001c.03 0 .044.04.019.06l-.194.142.072.23a.033.033 0 01-.05.037l-.196-.14-.196.14a.033.033 0 01-.05-.036l.073-.23-.194-.144a.033.033 0 01.019-.059l.241-.001.076-.23c.01-.029.052-.029.062 0zM7.474 8.42l.076.228.242.002c.03 0 .044.04.019.059l-.194.143.072.23a.033.033 0 01-.05.036l-.196-.14-.196.14a.033.033 0 01-.05-.036l.073-.23-.194-.143a.033.033 0 01.019-.06l.241-.001.076-.229c.01-.03.052-.03.062 0zM8.403 4.24l.077.229.241.002c.031 0 .044.04.02.058l-.195.144.073.23a.033.033 0 01-.05.036l-.196-.14-.197.14a.033.033 0 01-.05-.036l.073-.23-.194-.144a.033.033 0 01.02-.058l.24-.002.077-.23c.01-.029.052-.029.061 0zM8.403 5.437l.077.23h.241c.031.001.044.041.02.06l-.195.143.073.23a.033.033 0 01-.05.036l-.196-.14-.197.14a.033.033 0 01-.05-.036l.073-.23-.194-.143a.033.033 0 01.02-.06h.24l.077-.23c.01-.03.052-.03.061 0zM8.403 6.635l.077.229.241.001c.031 0 .044.04.02.06l-.195.142.073.23a.033.033 0 01-.05.037l-.196-.14-.197.14a.033.033 0 01-.05-.037l.073-.23-.194-.143a.033.033 0 01.02-.059l.24-.001.077-.23c.01-.029.052-.029.061 0zM8.403 7.832l.077.229.241.002c.031 0 .044.04.02.058l-.195.144.073.23a.033.033 0 01-.05.036l-.196-.14-.197.14a.033.033 0 01-.05-.036l.073-.23-.194-.144a.033.033 0 01.02-.058l.24-.002.077-.229c.01-.03.052-.03.061 0zM8.403 9.03l.077.228.241.002c.031 0 .044.04.02.059l-.195.143.073.23a.033.033 0 01-.05.037l-.196-.14-.197.14a.033.033 0 01-.05-.037l.073-.23-.194-.143a.033.033 0 01.02-.059l.24-.002.077-.229c.01-.03.052-.03.061 0z"/></g><defs><clipPath id="clip0"><path fill="#fff" d="M0 0h20v20H0z"/></clipPath></defs></svg>